<svg width="59" height="59" viewBox="0 0 59 59" fill="none" xmlns="http://www.w3.org/2000/svg">
<circle cx="29.5" cy="29.5" r="29" fill="#3F4140" stroke="#3F4140"/>
<path d="M19.3926 28.5509V37.34H18.6895V28.5509C18.6895 28.3621 18.6569 28.2026 18.5918 28.0724C18.5332 27.9357 18.4551 27.8315 18.3574 27.7599C18.2598 27.6883 18.1296 27.633 17.9668 27.5939C17.8105 27.5483 17.6576 27.5223 17.5078 27.5158C17.3581 27.5028 17.1725 27.4962 16.9512 27.4962C16.7298 27.4962 16.5443 27.5028 16.3945 27.5158C16.2448 27.5223 16.0885 27.5483 15.9258 27.5939C15.7695 27.633 15.6426 27.6883 15.5449 27.7599C15.4473 27.8315 15.3659 27.9357 15.3008 28.0724C15.2422 28.2026 15.2129 28.3621 15.2129 28.5509V37.34H14.5098V28.5509C14.5098 27.3791 15.3236 26.7931 16.9512 26.7931C18.5788 26.7931 19.3926 27.3791 19.3926 28.5509ZM20.7988 28.5509V37.34H20.0957V28.5509C20.0957 27.7241 19.8027 27.1089 19.2168 26.7052C18.6374 26.2951 17.8822 26.09 16.9512 26.09C16.0202 26.09 15.2617 26.2951 14.6758 26.7052C14.0964 27.1089 13.8066 27.7241 13.8066 28.5509V37.34H13.1035V28.5509C13.1035 27.8673 13.2793 27.2814 13.6309 26.7931C13.9824 26.3048 14.4414 25.95 15.0078 25.7287C15.5807 25.5008 16.2285 25.3869 16.9512 25.3869C17.6738 25.3869 18.3184 25.5008 18.8848 25.7287C19.4577 25.95 19.9199 26.3048 20.2715 26.7931C20.623 27.2814 20.7988 27.8673 20.7988 28.5509ZM22.2051 28.5509V37.34H21.502V28.5509C21.502 27.939 21.3815 27.3856 21.1406 26.8908C20.9062 26.396 20.5807 25.9891 20.1641 25.6701C19.7474 25.3511 19.2656 25.1069 18.7188 24.9377C18.1719 24.7684 17.5827 24.6837 16.9512 24.6837C16.3197 24.6837 15.7305 24.7684 15.1836 24.9377C14.6367 25.1069 14.1549 25.3511 13.7383 25.6701C13.3216 25.9891 12.9928 26.396 12.752 26.8908C12.5176 27.3856 12.4004 27.939 12.4004 28.5509V37.34H11.6973V28.5509C11.6973 27.8413 11.834 27.1968 12.1074 26.6173C12.3874 26.0379 12.765 25.5594 13.2402 25.1818C13.7155 24.7977 14.2721 24.5015 14.9102 24.2931C15.5482 24.0848 16.2285 23.9806 16.9512 23.9806C17.6738 23.9806 18.3542 24.0848 18.9922 24.2931C19.6302 24.5015 20.1868 24.7977 20.6621 25.1818C21.1374 25.5594 21.5117 26.0379 21.7852 26.6173C22.0651 27.1968 22.2051 27.8413 22.2051 28.5509ZM23.6113 37.34H22.9082V28.5509C22.9082 27.8413 22.7487 27.161 22.4297 26.5099C22.1172 25.8589 21.694 25.299 21.1602 24.8302C20.6263 24.355 19.9915 23.9774 19.2559 23.6974C18.5202 23.4175 17.752 23.2775 16.9512 23.2775C15.8509 23.2775 14.8516 23.4858 13.9531 23.9025C13.0612 24.3127 12.3451 24.9246 11.8047 25.7384C11.2643 26.5457 10.9941 27.4832 10.9941 28.5509V37.34H10.291V28.5509C10.291 27.6525 10.4668 26.8257 10.8184 26.0705C11.1699 25.3153 11.6452 24.6837 12.2441 24.1759C12.8496 23.6681 13.556 23.2742 14.3633 22.9943C15.1771 22.7143 16.0397 22.5744 16.9512 22.5744C18.5658 22.5744 19.9655 22.9813 21.1504 23.7951C22.3353 22.9813 23.735 22.5744 25.3496 22.5744C26.2611 22.5744 27.1204 22.7143 27.9277 22.9943C28.7415 23.2742 29.4479 23.6681 30.0469 24.1759C30.6523 24.6837 31.1309 25.3153 31.4824 26.0705C31.834 26.8257 32.0098 27.6525 32.0098 28.5509V37.34H31.3066V28.5509C31.3066 27.4897 31.0365 26.5555 30.4961 25.7482C29.9557 24.9344 29.2363 24.3192 28.3379 23.9025C27.446 23.4858 26.4499 23.2775 25.3496 23.2775C23.9694 23.2775 22.765 23.603 21.7363 24.2541C21.8861 24.3843 22.0521 24.5535 22.2344 24.7619C23.1263 24.241 24.1647 23.9806 25.3496 23.9806C26.0723 23.9806 26.7526 24.0848 27.3906 24.2931C28.0286 24.5015 28.5853 24.7977 29.0605 25.1818C29.5358 25.5594 29.9102 26.0379 30.1836 26.6173C30.4635 27.1968 30.6035 27.8413 30.6035 28.5509V37.34H29.9004V28.5509C29.9004 27.939 29.7799 27.3856 29.5391 26.8908C29.3047 26.396 28.9792 25.9891 28.5625 25.6701C28.1458 25.3511 27.6641 25.1069 27.1172 24.9377C26.5703 24.7684 25.9811 24.6837 25.3496 24.6837C24.3145 24.6837 23.4193 24.8953 22.6641 25.3185C22.7812 25.5008 22.8984 25.7026 23.0156 25.924C23.6536 25.5659 24.4316 25.3869 25.3496 25.3869C26.0723 25.3869 26.7168 25.5008 27.2832 25.7287C27.8561 25.95 28.3184 26.3048 28.6699 26.7931C29.0215 27.2814 29.1973 27.8673 29.1973 28.5509V37.34H28.4941V28.5509C28.4941 27.7241 28.2012 27.1089 27.6152 26.7052C27.0358 26.2951 26.2806 26.09 25.3496 26.09C24.5033 26.09 23.8164 26.2462 23.2891 26.5587C23.3737 26.8061 23.4388 27.0405 23.4844 27.2619C23.8945 26.9494 24.5163 26.7931 25.3496 26.7931C26.9772 26.7931 27.791 27.3791 27.791 28.5509V37.34H27.0879V28.5509C27.0879 28.3621 27.0553 28.2026 26.9902 28.0724C26.9316 27.9357 26.8535 27.8315 26.7559 27.7599C26.6582 27.6883 26.528 27.633 26.3652 27.5939C26.209 27.5483 26.056 27.5223 25.9062 27.5158C25.7565 27.5028 25.571 27.4962 25.3496 27.4962C25.1283 27.4962 24.9427 27.5028 24.793 27.5158C24.6432 27.5223 24.487 27.5483 24.3242 27.5939C24.168 27.633 24.041 27.6883 23.9434 27.7599C23.8457 27.8315 23.7643 27.9357 23.6992 28.0724C23.6406 28.2026 23.6113 28.3621 23.6113 28.5509V37.34ZM43.748 30.4064C43.748 29.5731 43.4909 28.9285 42.9766 28.4728C42.4622 28.0171 41.7819 27.7892 40.9355 27.7892C40.2194 27.7892 39.6042 28.0366 39.0898 28.5314C38.5755 29.0262 38.3184 29.6186 38.3184 30.3087C38.3184 30.6994 38.3704 31.0509 38.4746 31.3634C38.5788 31.6694 38.7188 31.9266 38.8945 32.1349C39.0768 32.3367 39.2917 32.506 39.5391 32.6427C39.7865 32.7729 40.0436 32.8673 40.3105 32.9259C40.584 32.9845 40.8737 33.0138 41.1797 33.0138C41.9219 33.0138 42.599 32.8315 43.2109 32.4669V33.1701C42.5794 33.5021 41.8991 33.6681 41.1699 33.6681C40.7012 33.6681 40.2585 33.6063 39.8418 33.4826C39.4316 33.3524 39.0573 33.1603 38.7188 32.9064C38.3802 32.646 38.11 32.2944 37.9082 31.8517C37.7129 31.4025 37.6152 30.8882 37.6152 30.3087C37.6152 29.4103 37.931 28.6486 38.5625 28.0236C39.194 27.3986 39.985 27.0861 40.9355 27.0861C41.9837 27.0861 42.8301 27.3823 43.4746 27.9748C44.1257 28.5607 44.4512 29.3712 44.4512 30.4064V37.34H43.748V30.4064ZM45.8574 30.4064V37.34H45.1543V30.4064C45.1543 29.1759 44.7604 28.1994 43.9727 27.4767C43.1849 26.7475 42.1725 26.383 40.9355 26.383C39.7897 26.383 38.8327 26.7638 38.0645 27.5255C37.2962 28.2873 36.9121 29.215 36.9121 30.3087C36.9121 30.9728 37.026 31.5685 37.2539 32.0959C37.4883 32.6232 37.804 33.0464 38.2012 33.3654C38.5983 33.6844 39.041 33.9285 39.5293 34.0978C40.0241 34.2606 40.5449 34.3419 41.0918 34.3419C41.834 34.3419 42.5404 34.1694 43.2109 33.8244V34.5666C42.5078 34.8595 41.7982 35.006 41.082 35.006C40.4375 35.006 39.8255 34.9084 39.2461 34.713C38.6667 34.5112 38.1491 34.2215 37.6934 33.8439C37.2376 33.4598 36.8763 32.965 36.6094 32.3595C36.3424 31.7475 36.209 31.064 36.209 30.3087C36.209 29.0262 36.6615 27.9357 37.5664 27.0373C38.4779 26.1323 39.6009 25.6798 40.9355 25.6798C41.873 25.6798 42.7129 25.8719 43.4551 26.256C44.1973 26.6336 44.7832 27.1837 45.2129 27.9064C45.6426 28.6291 45.8574 29.4624 45.8574 30.4064ZM47.2637 30.4064V37.34H46.5605V30.4064C46.5605 29.3322 46.3132 28.3817 45.8184 27.5548C45.3301 26.7215 44.6595 26.0835 43.8066 25.6408C42.9538 25.1981 41.9967 24.9767 40.9355 24.9767C39.9264 24.9767 39.0052 25.2176 38.1719 25.6994C37.3385 26.1746 36.6842 26.8192 36.209 27.633C35.7402 28.4468 35.5059 29.3387 35.5059 30.3087C35.5059 31.1421 35.6589 31.9038 35.9648 32.5939C36.2708 33.2775 36.681 33.8406 37.1953 34.2834C37.7161 34.7261 38.3053 35.0711 38.9629 35.3185C39.627 35.5594 40.3203 35.6798 41.043 35.6798C41.7786 35.6798 42.5013 35.5268 43.2109 35.2209V35.9337C42.4688 36.2137 41.7396 36.3537 41.0234 36.3537C39.8971 36.3537 38.862 36.0998 37.918 35.5919C36.974 35.0841 36.2188 34.3647 35.6523 33.4337C35.0859 32.5028 34.8027 31.4611 34.8027 30.3087C34.8027 29.4884 34.959 28.7072 35.2715 27.965C35.5905 27.2228 36.0202 26.5815 36.5605 26.0412C37.1009 25.5008 37.752 25.0711 38.5137 24.7521C39.2754 24.4331 40.0827 24.2736 40.9355 24.2736C42.127 24.2736 43.2012 24.5275 44.1582 25.0353C45.1217 25.5431 45.8802 26.2658 46.4336 27.2033C46.987 28.1408 47.2637 29.2085 47.2637 30.4064ZM48.6699 30.4064V37.34H47.9668V30.4064C47.9668 29.0783 47.6576 27.8934 47.0391 26.8517C46.4206 25.8035 45.5775 24.9962 44.5098 24.4298C43.4421 23.8569 42.2507 23.5705 40.9355 23.5705C39.6725 23.5705 38.5169 23.8732 37.4688 24.4787C36.4206 25.0841 35.597 25.9044 34.998 26.9396C34.3991 27.9683 34.0996 29.0913 34.0996 30.3087C34.0996 31.1095 34.2266 31.8712 34.4805 32.5939C34.7409 33.31 35.0924 33.9383 35.5352 34.4787C35.9844 35.0125 36.4987 35.4748 37.0781 35.8654C37.6641 36.256 38.2923 36.5522 38.9629 36.7541C39.64 36.9559 40.3268 37.0568 41.0234 37.0568C41.7917 37.0568 42.5208 36.9103 43.2109 36.6173V37.34C42.4883 37.5939 41.7461 37.7209 40.9844 37.7209C40.1966 37.7209 39.4284 37.6102 38.6797 37.3888C37.9375 37.1675 37.2474 36.8419 36.6094 36.4123C35.9779 35.9761 35.4212 35.465 34.9395 34.8791C34.4577 34.2866 34.0801 33.5965 33.8066 32.8087C33.5332 32.021 33.3965 31.1877 33.3965 30.3087C33.3965 29.2996 33.5853 28.3393 33.9629 27.4279C34.347 26.5099 34.8678 25.7189 35.5254 25.0548C36.1895 24.3843 36.9902 23.8537 37.9277 23.463C38.8717 23.0659 39.8743 22.8673 40.9355 22.8673C42.0163 22.8673 43.0319 23.0496 43.9824 23.4142C44.9329 23.7788 45.7533 24.2866 46.4434 24.9377C47.1335 25.5822 47.6771 26.3765 48.0742 27.3205C48.4714 28.2645 48.6699 29.2931 48.6699 30.4064Z" fill="#B9D6C4"/>
</svg>
